<?xml version="1.0" encoding="UTF-8"?><svg id="Layer_2" xmlns="http://www.w3.org/2000/svg" xmlns:xlink="http://www.w3.org/1999/xlink" viewBox="0 0 166.64 166.77"><defs><style>.cls-1{fill:url(#linear-gradient-2);}.cls-2{fill:url(#linear-gradient-3);}.cls-3{fill:url(#linear-gradient);}.cls-4{fill:url(#linear-gradient-4);}</style><linearGradient id="linear-gradient" x1="-779.93" y1="574.44" x2="-635.21" y2="574.44" gradientTransform="translate(780.77 -493.48)" gradientUnits="userSpaceOnUse"><stop offset="0" stop-color="#662483"/><stop offset="1" stop-color="#e6007e"/></linearGradient><linearGradient id="linear-gradient-2" x1="-664.59" y1="519.59" x2="-791.47" y2="592.85" xlink:href="#linear-gradient"/><linearGradient id="linear-gradient-3" x1="-784.29" y1="568.12" x2="-716.43" y2="500.25" xlink:href="#linear-gradient"/><linearGradient id="linear-gradient-4" x1="178.77" y1="138.18" x2="-12.3" y2="27.86" gradientTransform="matrix(1,0,0,1,0,0)" xlink:href="#linear-gradient"/></defs><g id="Layer_2-2"><path class="cls-3" d="m117.41,27.41c0,57.65-46.73,104.38-104.38,104.38-4.12,0-8.18-.27-12.18-.73v28.32c4.01.37,8.07.56,12.18.56,73.2,0,132.54-59.34,132.54-132.54,0-8.7-.85-17.2-2.45-25.44h-28.84c2.04,8.14,3.14,16.66,3.14,25.44Z"/><path class="cls-1" d="m78.45,27.41c0,36.13-29.29,65.42-65.42,65.42-4.17,0-8.23-.41-12.18-1.15v27.68c3.99.52,8.05.82,12.18.82,51.24,0,92.78-41.54,92.78-92.78,0-8.82-1.26-17.35-3.56-25.44h-28.92c3.3,7.82,5.13,16.41,5.13,25.44Z"/><path class="cls-2" d="m41.1,27.41c0,15.51-12.57,28.08-28.08,28.08-4.37,0-8.49-1.03-12.18-2.81v26.33c3.91.92,7.99,1.42,12.18,1.42,29.28,0,53.01-23.74,53.01-53.01,0-9.22-2.36-17.88-6.49-25.44H24.85c9.59,4.47,16.25,14.16,16.25,25.44Z"/><path class="cls-4" d="m.84,156.04l-.08-39.9-.2-39.9L.22,36.32.03,16.37c0-1.67-.05-3.3-.03-5.02.04-1.81.54-3.61,1.49-5.17.92-1.57,2.27-2.87,3.85-3.79,1.58-.92,3.41-1.39,5.24-1.42L90.38.25l39.9-.21,19.95-.04h2.49s1.25,0,1.25,0c.44,0,.77-.02,1.31.01,1.99.06,3.99.63,5.69,1.68,1.72,1.02,3.14,2.52,4.14,4.25.99,1.74,1.5,3.75,1.52,5.75l-.07,39.9-.2,39.9-.35,39.9-.19,19.95c-.02,1.68-.01,3.29-.06,5.02-.08,1.85-.62,3.69-1.61,5.26-.96,1.58-2.36,2.88-3.96,3.78-1.61.9-3.46,1.34-5.29,1.34l-79.81-.72-39.9-.2-19.95-.04c-1.66-.01-3.32,0-4.99-.03-1.66-.06-3.32-.53-4.73-1.42-1.43-.85-2.61-2.11-3.43-3.55-.82-1.45-1.23-3.12-1.25-4.78Zm0,0c.02,1.66.44,3.32,1.26,4.77.83,1.44,2,2.68,3.44,3.53,1.41.88,3.06,1.34,4.72,1.39,1.66.03,3.32,0,4.99,0l19.95-.04,39.9-.2,79.81-.72c1.49-.04,2.97-.42,4.25-1.17,1.28-.75,2.38-1.81,3.12-3.09.77-1.26,1.17-2.72,1.2-4.19.02-1.59-.02-3.3-.03-4.95l-.19-19.95-.35-39.9-.2-39.9-.07-39.9c-.02-1.32-.34-2.64-.99-3.79-.66-1.15-1.59-2.15-2.73-2.83-1.12-.71-2.43-1.08-3.76-1.13-.29-.03-.79-.01-1.18-.02h-1.25s-2.49,0-2.49,0l-19.95-.04-39.9-.21L10.58,2.97c-1.49,0-2.99.36-4.3,1.09-1.31.73-2.45,1.78-3.23,3.08-.81,1.27-1.25,2.77-1.32,4.28-.05,1.61-.04,3.31-.06,4.96l-.19,19.95-.35,39.9-.2,39.9-.08,39.9Z"/></g></svg>