<svg width="75" height="75" viewBox="0 0 75 75" fill="none" xmlns="http://www.w3.org/2000/svg">
<g clip-path="url(#clip0_212_39)">
<path d="M52.843 12.3269C52.843 38.2533 31.8111 59.2688 5.86445 59.2688C4.01015 59.2688 2.18286 59.1473 0.382568 58.9405V71.6766C2.18736 71.843 4.01465 71.9284 5.86445 71.9284C38.8097 71.9284 65.517 45.242 65.517 12.3224C65.517 8.4098 65.1344 4.58717 64.4143 0.88147H51.4342C52.3524 4.5422 52.8475 8.37382 52.8475 12.3224L52.843 12.3269Z" fill="url(#paint0_linear_212_39)"/>
<path d="M35.3082 12.3269C35.3082 28.5753 22.1255 41.7476 5.86445 41.7476C3.98764 41.7476 2.16035 41.5632 0.382568 41.2305V53.6787C2.17836 53.9126 4.00565 54.0475 5.86445 54.0475C28.9261 54.0475 47.6221 35.3661 47.6221 12.3224C47.6221 8.35583 47.055 4.51971 46.0199 0.88147H33.0038C34.489 4.39829 35.3127 8.26139 35.3127 12.3224L35.3082 12.3269Z" fill="url(#paint1_linear_212_39)"/>
<path d="M18.4978 12.3269C18.4978 19.3021 12.8404 24.9551 5.85981 24.9551C3.89299 24.9551 2.0387 24.4919 0.37793 23.6914V35.5325C2.13771 35.9463 3.97401 36.1711 5.85981 36.1711C19.0379 36.1711 29.7181 25.4947 29.7181 12.3314C29.7181 8.18498 28.656 4.29039 26.7972 0.890503H11.1842C15.5003 2.90076 18.4978 7.25855 18.4978 12.3314V12.3269Z" fill="url(#paint2_linear_212_39)"/>
<path d="M0.377989 70.1744L0.341983 52.2306L0.251968 34.2867L0.0989439 16.3338L0.0134302 7.36188C0.0134302 6.61085 -0.00907337 5.8778 -7.19255e-05 5.10428C0.017931 4.29029 0.242967 3.48079 0.670535 2.77922C1.0846 2.07316 1.6922 1.48852 2.40331 1.07478C3.11443 0.661036 3.93806 0.449667 4.76169 0.436176L40.6774 0.112377L58.6353 0.0179351L67.6142 -5.3768e-05H68.7349H69.2975C69.4955 -5.3768e-05 69.6441 -0.00904819 69.8871 0.00444344C70.7828 0.0314267 71.6829 0.287768 72.448 0.759975C73.2221 1.21869 73.8612 1.89327 74.3113 2.67129C74.7569 3.45381 74.9864 4.35774 74.9954 5.25719L74.9639 23.2011L74.8739 41.1449L74.7164 59.0888L74.6309 68.0607C74.6219 68.8163 74.6264 69.5403 74.6039 70.3184C74.5679 71.1503 74.3248 71.9778 73.8792 72.6839C73.4472 73.3944 72.8171 73.9791 72.097 74.3838C71.3723 74.7886 70.5397 74.9865 69.7161 74.9865L33.7958 74.6627L15.838 74.5727L6.85903 74.5547C6.11191 74.5502 5.36479 74.5547 4.61317 74.5412C3.86605 74.5142 3.11893 74.3029 2.48433 73.9026C1.84072 73.5204 1.30964 72.9537 0.940579 72.3061C0.571519 71.654 0.38699 70.903 0.377989 70.1565V70.1744ZM0.377989 70.1744C0.38699 70.921 0.57602 71.6675 0.945079 72.3196C1.31864 72.9672 1.84522 73.5249 2.49333 73.9071C3.12793 74.3029 3.87055 74.5098 4.61767 74.5322C5.36479 74.5457 6.11191 74.5322 6.86353 74.5322L15.8425 74.5143L33.8003 74.4243L69.7206 74.1005C70.3912 74.0825 71.0573 73.9116 71.6334 73.5743C72.2095 73.237 72.7046 72.7603 73.0376 72.1847C73.3842 71.618 73.5642 70.9615 73.5777 70.3004C73.5867 69.5853 73.5687 68.8163 73.5642 68.0742L73.4787 59.1023L73.3212 41.1584L73.2311 23.2146L73.1996 5.27068C73.1906 4.67705 73.0466 4.08341 72.7541 3.56624C72.457 3.04906 72.0385 2.59933 71.5254 2.29352C71.0213 1.97422 70.4317 1.80783 69.8331 1.78534C69.7026 1.77185 69.4775 1.78084 69.302 1.77634H68.7394H67.6187L58.6398 1.75836L40.6819 1.66391L4.76169 1.33562C4.09108 1.33562 3.41597 1.49752 2.82638 1.82581C2.23679 2.15411 1.7237 2.62632 1.37265 3.21096C1.00809 3.7821 0.810058 4.45668 0.778553 5.13576C0.756049 5.85981 0.76055 6.62434 0.751548 7.36638L0.666035 16.3383L0.508509 34.2822L0.418495 52.2261L0.382489 70.1699L0.377989 70.1744Z" fill="white"/>
</g>
<defs>
<linearGradient id="paint0_linear_212_39" x1="0.378068" y1="36.4094" x2="65.5125" y2="36.4094" gradientUnits="userSpaceOnUse">
<stop stop-color="#662483"/>
<stop offset="1" stop-color="#E6007E"/>
</linearGradient>
<linearGradient id="paint1_linear_212_39" x1="52.2894" y1="11.7422" x2="-4.79348" y2="44.7274" gradientUnits="userSpaceOnUse">
<stop stop-color="#662483"/>
<stop offset="1" stop-color="#E6007E"/>
</linearGradient>
<linearGradient id="paint2_linear_212_39" x1="-1.58439" y1="33.5672" x2="28.9337" y2="3.02087" gradientUnits="userSpaceOnUse">
<stop stop-color="#662483"/>
<stop offset="1" stop-color="#E6007E"/>
</linearGradient>
<clipPath id="clip0_212_39">
<rect width="75" height="75" fill="white"/>
</clipPath>
</defs>
</svg>
